<svg width="24" height="24" viewBox="0 0 24 24" fill="none" xmlns="http://www.w3.org/2000/svg">
<g id="shopping_basket_24px">
<path id="icon/action/shopping_basket_24px" fill-rule="evenodd" clip-rule="evenodd" d="M22 9.50627H17.21L12.82 2.93627C12.42 2.34627 11.55 2.34627 11.16 2.93627L6.77 9.50627H2C1.45 9.50627 1 9.95627 1 10.5063C1 10.5963 1.01 10.6863 1.04 10.7763L3.58 20.0463C3.81 20.8863 4.58 21.5063 5.5 21.5063H18.5C19.42 21.5063 20.19 20.8863 20.43 20.0463L22.97 10.7763L23 10.5063C23 9.95627 22.55 9.50627 22 9.50627ZM11.99 5.29627L14.8 9.50627H9.18L11.99 5.29627ZM10 15.5063C10 16.6063 10.9 17.5063 12 17.5063C13.1 17.5063 14 16.6063 14 15.5063C14 14.4063 13.1 13.5063 12 13.5063C10.9 13.5063 10 14.4063 10 15.5063Z" fill="#333333"/>
</g>
</svg>
